# xmcd
#
# Track frame offsets:
# 150
# 15461
# 35356
# 49124
# 68159
# 90824
# 111626
# 131499
# 153185
# 168122
#
# Disc length: 2476 seconds
#
#
# Revision: 0
# Processed by: cddbd v1.5.2PL0 Copyright (c) Steve Scherf et al.
# Submitted via: FreeRIP 2.951 
#
DISCID=7009aa0a
DTITLE=Roberto Carlos - El dia que mi quieras
DYEAR=1974
DGENRE=Ballad
TTITLE0=Actitudes
TTITLE1=Propuesta
TTITLE2=Amigos, Amigos
TTITLE3=Palabras
TTITLE4=La Gitana
TTITLE5=El dia que mi quieras
TTITLE6=El hombre
TTITLE7=Rutina
TTITLE8=Sueño lindo
TTITLE9=El show ya terminó
EXTD=
EXTT0=
EXTT1=
EXTT2=
EXTT3=
EXTT4=
EXTT5=
EXTT6=
EXTT7=
EXTT8=
EXTT9=
PLAYORDER=
